<?xml version="1.0" encoding="UTF-8"?>
<!DOCTYPE svg PUBLIC "-//W3C//DTD SVG 1.1//EN" "http://www.w3.org/Graphics/SVG/1.1/DTD/svg11.dtd">
<svg version="1.1" xmlns="http://www.w3.org/2000/svg" xmlns:xlink="http://www.w3.org/1999/xlink" x="0" y="0" width="163.485" height="74.537" viewBox="0, 0, 163.485, 74.537">
  <g id="Layer_1">
    <path d="M1.962,74.535 C0.317,72.14 -0.362,69.722 0.187,66.948 C0.666,64.534 2.144,63.172 4.384,62.55 C5.454,62.253 6.583,62.168 7.689,61.997 C8.548,61.864 9.41,61.749 10.349,61.615 C10.519,60.69 10.206,59.952 10.046,59.193 C9.388,56.068 8.735,52.941 8.107,49.809 C7.816,48.371 7.974,46.945 8.369,45.543 C8.795,44.023 9.564,42.763 11.029,42.019 C12.097,41.476 13.146,40.893 14.215,40.35 C16.1,39.393 18.098,38.895 20.221,38.933 C21.086,38.949 21.953,38.935 22.932,38.935 C22.864,38.31 22.854,37.841 22.756,37.39 C21.389,31.104 22.785,25.354 26.092,19.962 C28.76,15.61 32.219,12.037 36.309,8.973 C41.186,5.322 46.498,2.666 52.414,1.301 C56.391,0.383 60.447,-0.02 64.545,0.001 C69.039,0.023 73.479,0.457 77.85,1.524 C83.205,2.832 88.114,5.085 92.399,8.576 C95.321,10.957 97.253,14.073 98.567,17.571 C99.128,19.065 99.555,20.608 100.047,22.128 C100.166,22.5 100.297,22.869 100.469,23.371 C100.973,23.295 101.428,23.261 101.865,23.156 C103.806,22.687 105.74,22.183 107.681,21.718 C110.492,21.047 113.349,20.791 116.232,20.681 C123.437,20.407 131.476,25.154 134.179,33.649 C135.21,36.889 135.523,40.212 135.609,43.58 C135.64,44.776 135.734,45.974 135.877,47.161 C135.93,47.598 136.213,48.007 136.443,48.556 C137.367,48.244 138.181,47.966 139,47.693 C146.426,45.213 151.928,50.712 152.584,55.962 C152.867,58.227 152.1,60.199 151.096,62.132 C150.815,62.674 150.516,63.206 150.102,63.969 C151.063,63.969 151.758,64.005 152.45,63.962 C154.718,63.823 156.915,64.184 159.063,64.878 C159.743,65.098 160.403,65.397 161.043,65.714 C161.943,66.16 162.566,66.862 162.822,67.859 C162.922,68.246 162.992,68.649 163.154,69.008 C164,70.891 163.105,72.252 161.789,73.434 C161.476,73.716 160.928,73.815 160.475,73.848 C159.282,73.934 158.08,73.947 156.881,73.97 C156.002,73.987 155.121,73.972 154.242,73.974 C141.924,74 129.607,74.022 117.291,74.056 C108.014,74.082 98.736,74.112 89.459,74.16 C79.625,74.211 69.791,74.288 59.957,74.349 C53.639,74.389 47.322,74.421 41.004,74.453 C35.246,74.482 29.488,74.518 23.731,74.53 C17.333,74.544 10.936,74.533 4.54,74.533 C3.663,74.535 2.79,74.535 1.962,74.535 z" fill="#FFFFFF"/>
  </g>
</svg>
